<svg width="20" height="20" viewBox="0 0 24 24" fill="none" xmlns="http://www.w3.org/2000/svg">
<mask id="mask0_3605_59937" style="mask-type:alpha" maskUnits="userSpaceOnUse" x="3" y="6" width="18" height="12">
<path d="M20.8702 17.7023L12.6062 6.30938C12.3062 5.89688 11.6921 5.89688 11.3945 6.30938L3.12806 17.7023C3.10771 17.7304 3.09553 17.7635 3.09285 17.798C3.09017 17.8325 3.0971 17.8671 3.11288 17.8979C3.12865 17.9288 3.15265 17.9546 3.18222 17.9726C3.21179 17.9906 3.24577 18.0001 3.2804 18H5.03821C5.15774 18 5.27024 17.9414 5.34056 17.8453L11.9992 8.66719L18.6577 17.8453C18.7281 17.9414 18.8406 18 18.9601 18H20.7179C20.8702 18 20.9593 17.8266 20.8702 17.7023Z" fill="#002244"/>
</mask>
<g mask="url(#mask0_3605_59937)">
<rect y="-0.00012207" width="24" height="24" fill="#002244"/>
<rect y="-0.00012207" width="24" height="24" fill="#002244"/>
</g>
</svg>
