<svg width="24" height="24" viewBox="0 0 24 24" fill="none" xmlns="http://www.w3.org/2000/svg">
<mask id="mask0_10538_45357" style="mask-type:alpha" maskUnits="userSpaceOnUse" x="2" y="2" width="20" height="20">
<path d="M11.9859 2.90577C6.80859 2.9128 2.625 7.10108 2.625 12.2784C2.625 15.2784 4.03594 17.9503 6.22969 19.6659L5.35078 20.7909C5.25469 20.9151 5.34375 21.0956 5.49844 21.0933L9.4125 21.0745C9.53438 21.0745 9.62344 20.9597 9.59297 20.8425L8.66719 17.0386C8.65883 17.0043 8.64096 16.9731 8.61564 16.9485C8.59031 16.9239 8.55857 16.9069 8.52404 16.8996C8.48952 16.8923 8.45363 16.8948 8.42049 16.9069C8.38735 16.9191 8.35831 16.9404 8.33672 16.9683L7.38281 18.1894C7.14375 18.0019 6.91406 17.798 6.69609 17.58C6.01083 16.8971 5.46477 16.0876 5.08828 15.1964C4.69688 14.273 4.5 13.2909 4.5 12.2784C4.5 11.2659 4.69688 10.2839 5.08828 9.36046C5.46563 8.46749 6.00703 7.66593 6.69609 6.97686C7.38516 6.2878 8.18672 5.7464 9.07969 5.36905C10.0055 4.97765 10.9875 4.78077 12 4.78077C13.0125 4.78077 13.9945 4.97765 14.918 5.36905C15.8109 5.7464 16.6125 6.2878 17.3016 6.97686C17.9906 7.66593 18.532 8.46749 18.9094 9.36046C19.3008 10.2839 19.4977 11.2659 19.4977 12.2784C19.4977 13.2909 19.3008 14.273 18.9094 15.1964C18.5329 16.0876 17.9868 16.8971 17.3016 17.58C17.1258 17.7558 16.943 17.9198 16.7531 18.0769C16.7151 18.1078 16.6908 18.1524 16.6855 18.2012C16.6803 18.2499 16.6944 18.2987 16.725 18.337L17.6484 19.5206C17.7141 19.6026 17.8336 19.6167 17.9156 19.5511C20.0273 17.8308 21.375 15.2128 21.375 12.2784C21.375 7.0964 17.1703 2.89874 11.9859 2.90577Z" fill="#002244"/>
</mask>
<g mask="url(#mask0_10538_45357)">
<rect width="24" height="24" fill="#002244"/>
<rect width="24" height="24" fill="#002244"/>
</g>
</svg>
