<svg width="24" height="24" viewBox="0 0 24 24" fill="none" xmlns="http://www.w3.org/2000/svg">
<mask id="mask0_3605_59611" style="mask-type:alpha" maskUnits="userSpaceOnUse" x="1" y="2" width="22" height="20">
<path d="M13.4298 9.86716C12.8884 9.86716 12.4688 10.2867 12.4688 10.8047C12.4688 11.3226 12.8884 11.7422 13.4298 11.7422C13.9243 11.7422 14.3438 11.3226 14.3438 10.8047C14.3438 10.2867 13.9243 9.86716 13.4298 9.86716ZM6.86728 9.86716C6.32587 9.86716 5.90634 10.2867 5.90634 10.8047C5.90634 11.3226 6.32587 11.7422 6.86728 11.7422C7.36181 11.7422 7.78134 11.3226 7.78134 10.8047C7.78134 10.2867 7.36181 9.86716 6.86728 9.86716Z" fill="#002244"/>
<path d="M20.9538 8.08509C19.8264 6.53822 18.2514 5.50463 16.5241 5.03822V5.04056C16.1233 4.59525 15.671 4.18509 15.1647 3.81947C11.328 1.03041 5.94207 1.88119 3.14129 5.71791C0.884258 8.83509 0.980351 13.0281 3.28191 16.007L3.30066 19.1148C3.30066 19.1898 3.31238 19.2648 3.33582 19.3351C3.46004 19.7312 3.88191 19.9492 4.27566 19.8249L7.24285 18.8898C8.02801 19.1687 8.83895 19.3281 9.6452 19.3726L9.63348 19.382C11.7218 20.9031 14.4593 21.3601 16.9694 20.5304L19.9483 21.5007C20.0233 21.5242 20.1007 21.5382 20.1804 21.5382C20.5952 21.5382 20.9304 21.2031 20.9304 20.7882V17.6476C22.9952 14.8445 23.0491 10.9703 20.9538 8.08509ZM7.57098 17.2257L7.28973 17.1085L4.96941 17.8351L4.94598 15.3976L4.75848 15.1867C2.77566 12.7679 2.64441 9.28275 4.50066 6.72572C6.76004 3.62728 11.0913 2.94291 14.1804 5.17884C17.2788 7.43119 17.9655 11.7554 15.7272 14.8351C13.8499 17.4109 10.4889 18.3624 7.57098 17.2257ZM19.4069 16.8273L19.2194 17.0617L19.2429 19.4992L16.946 18.7257L16.6647 18.8429C15.3522 19.3304 13.953 19.3703 12.6569 19.007L12.6522 19.0046C14.3843 18.4726 15.9546 17.3945 17.0866 15.8429C18.8772 13.3749 19.1679 10.2742 18.1272 7.63041L18.1413 7.63978C18.6804 8.0265 19.1749 8.50931 19.5944 9.09291C21.296 11.4273 21.1999 14.6054 19.4069 16.8273Z" fill="#002244"/>
<path d="M10.1485 9.86716C9.60712 9.86716 9.18759 10.2867 9.18759 10.8047C9.18759 11.3226 9.60712 11.7422 10.1485 11.7422C10.6431 11.7422 11.0626 11.3226 11.0626 10.8047C11.0626 10.2867 10.6431 9.86716 10.1485 9.86716Z" fill="#002244"/>
</mask>
<g mask="url(#mask0_3605_59611)">
<rect y="-0.00012207" width="24" height="24" fill="#002244"/>
<rect y="-0.00012207" width="24" height="24" fill="#002244"/>
</g>
</svg>
