<svg width="20" height="20" viewBox="0 0 24 24" fill="none" xmlns="http://www.w3.org/2000/svg">
<mask id="mask0_3605_59549" style="mask-type:alpha" maskUnits="userSpaceOnUse" x="1" y="1" width="22" height="22">
<path d="M22.1839 11.8373L13.1276 2.78572L12.5206 2.17868C12.3823 2.04129 12.1952 1.96417 12.0003 1.96417C11.8053 1.96417 11.6183 2.04129 11.48 2.17868L1.8167 11.8373C1.67497 11.9784 1.56297 12.1466 1.48729 12.3318C1.41161 12.5169 1.3738 12.7154 1.37607 12.9154C1.38545 13.7404 2.07217 14.399 2.89717 14.399H3.89326V22.0326H20.1073V14.399H21.1245C21.5253 14.399 21.9026 14.242 22.1862 13.9584C22.3259 13.8192 22.4365 13.6537 22.5117 13.4714C22.587 13.2892 22.6253 13.0938 22.6245 12.8967C22.6245 12.4982 22.4675 12.1209 22.1839 11.8373ZM13.3128 20.3451H10.6878V15.5638H13.3128V20.3451ZM18.4198 12.7115V20.3451H14.8128V15.0013C14.8128 14.4834 14.3933 14.0638 13.8753 14.0638H10.1253C9.60732 14.0638 9.18779 14.4834 9.18779 15.0013V20.3451H5.58076V12.7115H3.33076L12.0026 4.04665L12.544 4.58806L20.6722 12.7115H18.4198Z" fill="#002244"/>
</mask>
<g mask="url(#mask0_3605_59549)">
<rect y="-0.00012207" width="24" height="24" fill="#002244"/>
<rect y="-0.00012207" width="24" height="24" fill="#002244"/>
</g>
</svg>
