<svg width="16" height="16" viewBox="0 0 16 16" fill="none" xmlns="http://www.w3.org/2000/svg">
<mask id="mask0_3943_206523" style="mask-type:alpha" maskUnits="userSpaceOnUse" x="0" y="1" width="16" height="14">
<path d="M14.933 13.375L8.43296 2.125C8.33609 1.95781 8.1689 1.875 8.00015 1.875C7.8314 1.875 7.66265 1.95781 7.56734 2.125L1.06734 13.375C0.875152 13.7094 1.11578 14.125 1.50015 14.125H14.5002C14.8845 14.125 15.1252 13.7094 14.933 13.375ZM7.50015 6.5C7.50015 6.43125 7.5564 6.375 7.62515 6.375H8.37515C8.4439 6.375 8.50015 6.43125 8.50015 6.5V9.375C8.50015 9.44375 8.4439 9.5 8.37515 9.5H7.62515C7.5564 9.5 7.50015 9.44375 7.50015 9.375V6.5ZM8.00015 12C7.80389 11.996 7.61702 11.9152 7.47964 11.775C7.34225 11.6348 7.26531 11.4463 7.26531 11.25C7.26531 11.0537 7.34225 10.8652 7.47964 10.725C7.61702 10.5848 7.80389 10.504 8.00015 10.5C8.19641 10.504 8.38329 10.5848 8.52067 10.725C8.65805 10.8652 8.735 11.0537 8.735 11.25C8.735 11.4463 8.65805 11.6348 8.52067 11.775C8.38329 11.9152 8.19641 11.996 8.00015 12Z" fill="#002244"/>
</mask>
<g mask="url(#mask0_3943_206523)">
<rect y="-0.00012207" width="16" height="16" fill="#F26522"/>
<rect y="-0.00012207" width="16" height="16" fill="#F26522"/>
</g>
</svg>
