<svg width="16" height="16" viewBox="0 0 16 16" fill="none" xmlns="http://www.w3.org/2000/svg">
<path d="M3.925 6.04736H5V7.12236C5 7.15049 5.02813 7.17236 5.0625 7.17236H5.8125C5.84688 7.17236 5.875 7.15049 5.875 7.1208V6.04736H6.95C6.97812 6.04736 7 6.01924 7 5.98486V5.23486C7 5.20049 6.97813 5.17236 6.94844 5.17236H5.875V4.09736C5.875 4.06924 5.84688 4.04736 5.8125 4.04736H5.0625C5.02813 4.04736 5 4.06924 5 4.09736V5.17236H3.925C3.89687 5.17236 3.875 5.20049 3.875 5.23486V5.98486C3.875 6.01924 3.89687 6.04736 3.925 6.04736ZM9.05 6.04736H12.075C12.1031 6.04736 12.125 6.01924 12.125 5.98486V5.23486C12.125 5.20049 12.1031 5.17236 12.0734 5.17236H9.05C9.02188 5.17236 9 5.20049 9 5.23486V5.98486C9 6.01924 9.02188 6.04736 9.05 6.04736ZM9.05 10.188H12.075C12.1031 10.188 12.125 10.1599 12.125 10.1255V9.37549C12.125 9.34111 12.1031 9.31299 12.0734 9.31299H9.05C9.02188 9.31299 9 9.34111 9 9.37549V10.1255C9 10.1599 9.02188 10.188 9.05 10.188ZM9.05 11.813H12.075C12.1031 11.813 12.125 11.7849 12.125 11.7505V11.0005C12.125 10.9661 12.1031 10.938 12.0734 10.938H9.05C9.02188 10.938 9 10.9661 9 11.0005V11.7505C9 11.7849 9.02188 11.813 9.05 11.813ZM5.99219 10.5474L6.94844 9.37705C7.01562 9.2958 6.95937 9.17236 6.85625 9.17236H6.0625C6.02656 9.17236 5.99219 9.18799 5.97031 9.21768L5.43906 9.86768L4.90781 9.21768C4.89664 9.20391 4.88261 9.19273 4.86669 9.1849C4.85078 9.17708 4.83335 9.1728 4.81563 9.17236H4.02031C3.91719 9.17236 3.86094 9.2958 3.92812 9.37705L4.88438 10.5474L3.90469 11.7474C3.83594 11.8286 3.89219 11.9521 3.99531 11.9521H4.78906C4.825 11.9521 4.85938 11.9364 4.88125 11.9067L5.43594 11.2271L5.99062 11.9067C6.01406 11.9349 6.04844 11.9521 6.08281 11.9521H6.87656C6.97969 11.9521 7.03594 11.8286 6.96875 11.7474L5.99219 10.5474ZM13.75 1.75049H2.25C1.97344 1.75049 1.75 1.97393 1.75 2.25049V13.7505C1.75 14.0271 1.97344 14.2505 2.25 14.2505H13.75C14.0266 14.2505 14.25 14.0271 14.25 13.7505V2.25049C14.25 1.97393 14.0266 1.75049 13.75 1.75049ZM13.1875 13.188H2.8125V2.81299H13.1875V13.188Z" fill="#002244"/>
</svg>
