<svg width="24" height="24" viewBox="0 0 24 24" fill="none" xmlns="http://www.w3.org/2000/svg">
<path d="M16.0644 8.31497C16.0644 8.21185 15.98 8.12747 15.8769 8.12747L14.3301 8.1345L12.0004 10.9118L9.67304 8.13685L8.12382 8.12982C8.0207 8.12982 7.93633 8.21185 7.93633 8.31732C7.93633 8.36185 7.95273 8.40404 7.98086 8.43919L11.0301 12.072L7.98086 15.7025C7.95254 15.7368 7.93682 15.7798 7.93633 15.8243C7.93633 15.9275 8.0207 16.0118 8.12382 16.0118L9.67304 16.0048L12.0004 13.2275L14.3277 16.0025L15.8746 16.0095C15.9777 16.0095 16.0621 15.9275 16.0621 15.822C16.0621 15.7775 16.0457 15.7353 16.0175 15.7001L12.973 12.0697L16.0222 8.43685C16.0504 8.40403 16.0644 8.3595 16.0644 8.31497Z" fill="#002244"/>
<path d="M12 1.52356C6.20156 1.52356 1.5 6.22512 1.5 12.0236C1.5 17.822 6.20156 22.5236 12 22.5236C17.7984 22.5236 22.5 17.822 22.5 12.0236C22.5 6.22512 17.7984 1.52356 12 1.52356ZM12 20.7423C7.18594 20.7423 3.28125 16.8376 3.28125 12.0236C3.28125 7.2095 7.18594 3.30481 12 3.30481C16.8141 3.30481 20.7188 7.2095 20.7188 12.0236C20.7188 16.8376 16.8141 20.7423 12 20.7423Z" fill="#002244"/>
</svg>
