<svg xmlns="http://www.w3.org/2000/svg" width="40" height="40" viewBox="0 0 40 40">
  <g id="eligible_icon" transform="translate(-442 -370)">
    <rect id="Rectangle_199" data-name="Rectangle 199" width="40" height="40" transform="translate(442 370)" fill="none"/>
    <g id="Group_193" data-name="Group 193" transform="translate(-28.825 -94.592)">
      <g id="SbHBOV.tif" transform="translate(477.825 465.592)">
        <g id="Group_192" data-name="Group 192">
          <path id="Path_63" data-name="Path 63" d="M482.417,480.028a42.744,42.744,0,0,1-4.449-8.848c-.708-2.278,1.3-4.92,4.011-5.415a10.483,10.483,0,0,1,1.848-.162q7.229-.019,14.459,0a6.553,6.553,0,0,1,4.1,1.139,4.2,4.2,0,0,1,1.528,5.193c-1.241,2.744-2.657,5.41-4.046,8.2-1.557-1.327-2.877-2.521-4.268-3.626-3.842-3.053-5.21-3.053-9.037-.005C485.168,477.613,483.844,478.81,482.417,480.028Zm1.695-12.862a6.832,6.832,0,0,0-1.916.342c-1.113.353-1.371,1.029-.84,2.073a5.388,5.388,0,0,0,2.652,2.495,16,16,0,0,0,14.027.009,7.022,7.022,0,0,0,2.35-1.919c1.234-1.523.821-2.606-1.133-2.806Z" transform="translate(-477.825 -465.592)" fill="#bababa"/>
        </g>
      </g>
      <rect id="Rectangle_182" data-name="Rectangle 182" width="10.691" height="4.334" rx="2.167" transform="translate(485.627 478.634)" fill="#bababa"/>
      <path id="Path_64" data-name="Path 64" d="M525.492,567.515l-5.619,5.619-5.619-5.619,2.512-13.652h5.923Z" transform="translate(-28.901 -70.027)" fill="#bababa"/>
    </g>
  </g>
</svg>
