<svg width="24" height="24" viewBox="0 0 24 24" fill="none" xmlns="http://www.w3.org/2000/svg">
<path d="M20.04 3.7519L15.6056 4.30268C15.451 4.32143 15.3877 4.50893 15.4955 4.61909L16.7775 5.90112L13.1799 9.49877C13.145 9.53401 13.1254 9.5816 13.1254 9.6312C13.1254 9.68079 13.145 9.72838 13.1799 9.76362L14.2369 10.8207C14.3095 10.8933 14.4291 10.8933 14.5017 10.8207L18.1017 7.22065L19.3838 8.50268C19.4085 8.5274 19.4397 8.54466 19.4738 8.55246C19.5079 8.56026 19.5435 8.55831 19.5765 8.54681C19.6095 8.53531 19.6387 8.51474 19.6605 8.48745C19.6824 8.46016 19.6961 8.42726 19.7002 8.39253L20.2486 3.96049C20.2525 3.93219 20.2498 3.90337 20.2407 3.87629C20.2316 3.84922 20.2163 3.82462 20.1961 3.80441C20.1759 3.78421 20.1513 3.76896 20.1242 3.75985C20.0971 3.75074 20.0683 3.74802 20.04 3.7519ZM9.76502 13.1785C9.72978 13.1436 9.68219 13.124 9.6326 13.124C9.583 13.124 9.53541 13.1436 9.50017 13.1785L5.90252 16.7785L4.62049 15.4964C4.59575 15.4717 4.56455 15.4545 4.53046 15.4467C4.49637 15.4388 4.46077 15.4408 4.42774 15.4523C4.39472 15.4638 4.3656 15.4844 4.34373 15.5117C4.32185 15.539 4.30811 15.5719 4.30408 15.6066L3.7533 20.0386C3.73923 20.1605 3.84002 20.2613 3.96189 20.2472L8.39627 19.6964C8.55095 19.6777 8.61424 19.4902 8.50642 19.38L7.22439 18.098L10.8244 14.498C10.897 14.4253 10.897 14.3058 10.8244 14.2332L9.76502 13.1785Z" fill="#002244"/>
</svg>
