<svg width="17" height="16" viewBox="0 0 17 16" fill="none" xmlns="http://www.w3.org/2000/svg">
<path d="M11.0833 4.875V4.125C11.0833 4.05625 11.027 4 10.9583 4H4.95825C4.8895 4 4.83325 4.05625 4.83325 4.125V4.875C4.83325 4.94375 4.8895 5 4.95825 5H10.9583C11.027 5 11.0833 4.94375 11.0833 4.875ZM4.95825 6.25C4.8895 6.25 4.83325 6.30625 4.83325 6.375V7.125C4.83325 7.19375 4.8895 7.25 4.95825 7.25H7.83325C7.902 7.25 7.95825 7.19375 7.95825 7.125V6.375C7.95825 6.30625 7.902 6.25 7.83325 6.25H4.95825ZM7.20825 13.3125H3.58325V2.3125H12.3333V7.6875C12.3333 7.75625 12.3895 7.8125 12.4583 7.8125H13.3333C13.402 7.8125 13.4583 7.75625 13.4583 7.6875V1.6875C13.4583 1.41094 13.2348 1.1875 12.9583 1.1875H2.95825C2.68169 1.1875 2.45825 1.41094 2.45825 1.6875V13.9375C2.45825 14.2141 2.68169 14.4375 2.95825 14.4375H7.20825C7.277 14.4375 7.33325 14.3813 7.33325 14.3125V13.4375C7.33325 13.3687 7.277 13.3125 7.20825 13.3125ZM14.1723 14.1172L12.7145 12.6594C13.0629 12.1984 13.2708 11.6234 13.2708 11C13.2708 9.48125 12.0395 8.25 10.5208 8.25C9.002 8.25 7.77075 9.48125 7.77075 11C7.77075 12.5188 9.002 13.75 10.5208 13.75C11.0801 13.75 11.5989 13.5828 12.0333 13.2969L13.5129 14.7766C13.5379 14.8016 13.5692 14.8125 13.6004 14.8125C13.6317 14.8125 13.6645 14.8 13.6879 14.7766L14.1723 14.2922C14.1838 14.2807 14.193 14.2671 14.1992 14.2521C14.2055 14.2371 14.2087 14.2209 14.2087 14.2047C14.2087 14.1884 14.2055 14.1723 14.1992 14.1573C14.193 14.1423 14.1838 14.1287 14.1723 14.1172ZM10.5208 12.75C9.55356 12.75 8.77075 11.9672 8.77075 11C8.77075 10.0328 9.55356 9.25 10.5208 9.25C11.4879 9.25 12.2708 10.0328 12.2708 11C12.2708 11.9672 11.4879 12.75 10.5208 12.75Z" fill="#666577" fill-opacity="0.6"/>
</svg>
