<svg xmlns="http://www.w3.org/2000/svg" width="32" height="32" viewBox="0 0 32 32">
  <g id="note_icon" transform="translate(-1305 -318)">
    <rect id="Rectangle_200" data-name="Rectangle 200" width="32" height="32" transform="translate(1305 318)" fill="none"/>
    <g id="Group_36" data-name="Group 36" transform="translate(449 -8)">
      <circle id="Ellipse_6" data-name="Ellipse 6" cx="12" cy="12" r="12" transform="translate(860 330)" fill="#bababa"/>
      <g id="Group_35" data-name="Group 35" transform="translate(3 2)">
        <g id="Group_34" data-name="Group 34" transform="translate(810.777 466.622)">
          <g id="eC5oGX.tif" transform="translate(56.68 -129.812)">
            <g id="Group_33" data-name="Group 33" transform="translate(0 0)">
              <path id="Path_26" data-name="Path 26" d="M77.81-109c.621-.2,1.216-.388,1.81-.58a.321.321,0,0,0,.119-.08q2.606-2.573,5.207-5.151a2.015,2.015,0,0,0,.31-.419.6.6,0,0,0-.017-.638,1.486,1.486,0,0,0-.5-.521.67.67,0,0,0-.675-.053,1.715,1.715,0,0,0-.451.3q-2.585,2.568-5.159,5.148a.412.412,0,0,0-.1.163c-.093.3-.18.6-.269.9Z" transform="translate(-77.81 116.51)" fill="#fff"/>
            </g>
          </g>
          <path id="Path_27" data-name="Path 27" d="M62.106-130.1v-2.03a.494.494,0,0,0-.494-.494h-.844v.9a.771.771,0,0,1-.77.771.771.771,0,0,1-.77-.771v-.9H57.935v.9a.771.771,0,0,1-.77.771.77.77,0,0,1-.77-.771v-.9H55.1v.9a.77.77,0,0,1-.77.771h0a.771.771,0,0,1-.77-.771v-.9h-.844a.494.494,0,0,0-.494.494v10.877a.494.494,0,0,0,.494.494h8.894a.494.494,0,0,0,.494-.494v-4.128q-1.415,1.4-2.831,2.8l-.143.141a1.044,1.044,0,0,1-.411.258c-.475.154-.95.306-1.438.461l-1.712.547.752-2.523c.065-.22.13-.44.2-.659a1.149,1.149,0,0,1,.279-.467l1.6-1.606H53.272v-.949h6.083c.876-.875,1.734-1.731,2.6-2.594A1.93,1.93,0,0,1,62.106-130.1Zm-2.681,1.419H53.272v-.949h6.154Z" transform="translate(0 0)" fill="#fff"/>
        </g>
        <rect id="Rectangle_62" data-name="Rectangle 62" width="16" height="16" transform="translate(861 332)" fill="none"/>
      </g>
    </g>
  </g>
</svg>
