<svg xmlns="http://www.w3.org/2000/svg" width="60" height="60" viewBox="0 0 60 60"><defs><style>.a{fill:none;}.b{fill:#5e2750;}</style></defs><path class="a" d="M0,0H60V60H0Z"/><path class="b" d="M41.869,2H7.859A4.893,4.893,0,0,0,3,6.93V41.437a4.909,4.909,0,0,0,4.859,4.93h9.717l5.563,5.644a2.4,2.4,0,0,0,3.425,0l5.587-5.644h9.717a4.909,4.909,0,0,0,4.859-4.93V6.93A4.909,4.909,0,0,0,41.869,2ZM24.864,10.134A6.656,6.656,0,1,1,18.3,16.789,6.611,6.611,0,0,1,24.864,10.134ZM39.44,36.507H10.288V34.289c0-4.93,9.717-7.641,14.576-7.641S39.44,29.359,39.44,34.289Z" transform="translate(5.136 3.424)"/></svg>