<svg width="24" height="24" viewBox="0 0 24 24" fill="none" xmlns="http://www.w3.org/2000/svg">
<path d="M11.2969 3.56262H12.7031C12.8281 3.56262 12.8906 3.62512 12.8906 3.75012V20.2501C12.8906 20.3751 12.8281 20.4376 12.7031 20.4376H11.2969C11.1719 20.4376 11.1094 20.3751 11.1094 20.2501V3.75012C11.1094 3.62512 11.1719 3.56262 11.2969 3.56262Z" fill="#002244"/>
<path d="M4.125 11.1095H19.875C20 11.1095 20.0625 11.172 20.0625 11.297V12.7032C20.0625 12.8282 20 12.8907 19.875 12.8907H4.125C4 12.8907 3.9375 12.8282 3.9375 12.7032V11.297C3.9375 11.172 4 11.1095 4.125 11.1095Z" fill="#002244"/>
</svg>
