<svg width="24" height="24" viewBox="0 0 24 24" fill="none" xmlns="http://www.w3.org/2000/svg">
<path d="M20.9367 6.87471L17.1258 3.06377C16.95 2.88799 16.7344 2.75908 16.5 2.68877V2.62549H3.375C2.96016 2.62549 2.625 2.96064 2.625 3.37549V20.6255C2.625 21.0403 2.96016 21.3755 3.375 21.3755H20.625C21.0398 21.3755 21.375 21.0403 21.375 20.6255V7.93408C21.375 7.53564 21.218 7.15596 20.9367 6.87471ZM9 4.31299H15V6.75049H9V4.31299ZM19.6875 19.688H4.3125V4.31299H7.5V7.50049C7.5 7.91533 7.83516 8.25049 8.25 8.25049H15.75C16.1648 8.25049 16.5 7.91533 16.5 7.50049V4.82393L19.6875 8.01143V19.688ZM12 10.3599C10.1367 10.3599 8.625 11.8716 8.625 13.7349C8.625 15.5981 10.1367 17.1099 12 17.1099C13.8633 17.1099 15.375 15.5981 15.375 13.7349C15.375 11.8716 13.8633 10.3599 12 10.3599ZM12 15.6099C10.9641 15.6099 10.125 14.7708 10.125 13.7349C10.125 12.6989 10.9641 11.8599 12 11.8599C13.0359 11.8599 13.875 12.6989 13.875 13.7349C13.875 14.7708 13.0359 15.6099 12 15.6099Z" fill="#002244"/>
</svg>
