<svg width="20" height="20" viewBox="0 0 24 24" fill="none" xmlns="http://www.w3.org/2000/svg">
<path d="M21.3187 20.0275L15.232 13.9407C16.1766 12.7197 16.6875 11.2267 16.6875 9.65637C16.6875 7.77668 15.9539 6.01418 14.6273 4.68528C13.3008 3.35637 11.5336 2.62512 9.65625 2.62512C7.77891 2.62512 6.01172 3.35872 4.68516 4.68528C3.35625 6.01184 2.625 7.77668 2.625 9.65637C2.625 11.5337 3.35859 13.3009 4.68516 14.6275C6.01172 15.9564 7.77656 16.6876 9.65625 16.6876C11.2266 16.6876 12.7172 16.1767 13.9383 15.2345L20.025 21.3189C20.0428 21.3367 20.064 21.3509 20.0874 21.3606C20.1107 21.3702 20.1357 21.3752 20.1609 21.3752C20.1862 21.3752 20.2112 21.3702 20.2345 21.3606C20.2578 21.3509 20.279 21.3367 20.2969 21.3189L21.3187 20.2993C21.3366 20.2815 21.3508 20.2603 21.3604 20.237C21.3701 20.2137 21.3751 20.1887 21.3751 20.1634C21.3751 20.1382 21.3701 20.1132 21.3604 20.0898C21.3508 20.0665 21.3366 20.0453 21.3187 20.0275ZM13.3688 13.3689C12.375 14.3603 11.0578 14.9064 9.65625 14.9064C8.25469 14.9064 6.9375 14.3603 5.94375 13.3689C4.95234 12.3751 4.40625 11.0579 4.40625 9.65637C4.40625 8.25481 4.95234 6.93528 5.94375 5.94387C6.9375 4.95247 8.25469 4.40637 9.65625 4.40637C11.0578 4.40637 12.3773 4.95012 13.3688 5.94387C14.3602 6.93762 14.9062 8.25481 14.9062 9.65637C14.9062 11.0579 14.3602 12.3775 13.3688 13.3689Z" fill="#ffffff"/>
</svg>
