<svg width="24" height="24" viewBox="0 0 24 24" fill="none" xmlns="http://www.w3.org/2000/svg">
<path d="M21.6759 14.6634L20.1408 13.3509C20.2134 12.9056 20.2509 12.4509 20.2509 11.9963C20.2509 11.5416 20.2134 11.0869 20.1408 10.6416L21.6759 9.32907C21.7917 9.22995 21.8746 9.09792 21.9135 8.95055C21.9525 8.80318 21.9456 8.64745 21.8939 8.50407L21.8728 8.44313C21.4502 7.26195 20.8173 6.16697 20.0048 5.2111L19.9627 5.16188C19.8641 5.04599 19.7327 4.96268 19.5859 4.92293C19.439 4.88319 19.2836 4.88887 19.14 4.93923L17.2345 5.61657C16.5314 5.04001 15.7463 4.58532 14.8978 4.26657L14.5298 2.27438C14.5021 2.12448 14.4294 1.98658 14.3214 1.87899C14.2134 1.7714 14.0752 1.69922 13.9252 1.67204L13.8619 1.66032C12.6408 1.44001 11.3564 1.44001 10.1353 1.66032L10.072 1.67204C9.92202 1.69922 9.78384 1.7714 9.67583 1.87899C9.56782 1.98658 9.49511 2.12448 9.46734 2.27438L9.09703 4.27595C8.25536 4.59476 7.47156 5.04921 6.77672 5.62126L4.85719 4.93923C4.71367 4.88847 4.5581 4.88258 4.41116 4.92235C4.26422 4.96212 4.13286 5.04567 4.03453 5.16188L3.99234 5.2111C3.18081 6.16764 2.54807 7.26244 2.12438 8.44313L2.10328 8.50407C1.99781 8.79704 2.08453 9.12516 2.32125 9.32907L3.87516 10.6556C3.8025 11.0963 3.76734 11.5463 3.76734 11.9939C3.76734 12.4439 3.8025 12.8939 3.87516 13.3322L2.32125 14.6588C2.20546 14.7579 2.12259 14.8899 2.08365 15.0373C2.04472 15.1846 2.05156 15.3404 2.10328 15.4838L2.12438 15.5447C2.54859 16.7259 3.17672 17.8158 3.99234 18.7767L4.03453 18.8259C4.1331 18.9418 4.26446 19.0252 4.41132 19.0649C4.55817 19.1046 4.71363 19.099 4.85719 19.0486L6.77672 18.3666C7.47516 18.9408 8.25563 19.3955 9.09703 19.7119L9.46734 21.7134C9.49511 21.8633 9.56782 22.0013 9.67583 22.1088C9.78384 22.2164 9.92202 22.2886 10.072 22.3158L10.1353 22.3275C11.3676 22.549 12.6296 22.549 13.8619 22.3275L13.9252 22.3158C14.0752 22.2886 14.2134 22.2164 14.3214 22.1088C14.4294 22.0013 14.5021 21.8633 14.5298 21.7134L14.8978 19.7213C15.7459 19.4033 16.5355 18.9472 17.2345 18.3713L19.14 19.0486C19.2835 19.0994 19.4391 19.1052 19.586 19.0655C19.733 19.0257 19.8643 18.9422 19.9627 18.8259L20.0048 18.7767C20.8205 17.8134 21.4486 16.7259 21.8728 15.5447L21.8939 15.4838C21.9994 15.1955 21.9127 14.8674 21.6759 14.6634ZM18.4767 10.9181C18.5353 11.272 18.5658 11.6353 18.5658 11.9986C18.5658 12.3619 18.5353 12.7252 18.4767 13.0791L18.322 14.0189L20.0728 15.5166C19.8074 16.128 19.4724 16.7069 19.0744 17.2416L16.8994 16.4705L16.1634 17.0752C15.6033 17.5345 14.9798 17.8955 14.3048 18.1486L13.4119 18.4838L12.9923 20.7572C12.3304 20.8322 11.6621 20.8322 11.0002 20.7572L10.5806 18.4791L9.69469 18.1392C9.02672 17.8861 8.40563 17.5252 7.85016 17.0681L7.11422 16.4611L4.92516 17.2392C4.52672 16.7025 4.19391 16.1236 3.92672 15.5142L5.69625 14.0025L5.54391 13.065C5.48766 12.7158 5.45719 12.3549 5.45719 11.9986C5.45719 11.64 5.48531 11.2814 5.54391 10.9322L5.69625 9.9947L3.92672 8.48298C4.19156 7.87126 4.52672 7.2947 4.92516 6.75798L7.11422 7.5361L7.85016 6.92907C8.40563 6.47204 9.02672 6.1111 9.69469 5.85798L10.583 5.52282L11.0025 3.2447C11.6611 3.1697 12.3338 3.1697 12.9947 3.2447L13.4142 5.51813L14.3072 5.85329C14.9798 6.10641 15.6056 6.46735 16.1658 6.92673L16.9017 7.53141L19.0767 6.76032C19.4752 7.29704 19.808 7.87595 20.0752 8.48532L18.3244 9.98298L18.4767 10.9181ZM12.0009 7.63923C9.72281 7.63923 7.87594 9.4861 7.87594 11.7642C7.87594 14.0424 9.72281 15.8892 12.0009 15.8892C14.2791 15.8892 16.1259 14.0424 16.1259 11.7642C16.1259 9.4861 14.2791 7.63923 12.0009 7.63923ZM13.8572 13.6205C13.6137 13.8646 13.3244 14.0583 13.0058 14.1902C12.6873 14.3221 12.3457 14.3898 12.0009 14.3892C11.3002 14.3892 10.6416 14.115 10.1447 13.6205C9.90052 13.377 9.70691 13.0877 9.57498 12.7691C9.44304 12.4505 9.3754 12.109 9.37594 11.7642C9.37594 11.0634 9.65016 10.4049 10.1447 9.90798C10.6416 9.4111 11.3002 9.13923 12.0009 9.13923C12.7017 9.13923 13.3603 9.4111 13.8572 9.90798C14.1014 10.1514 14.295 10.4408 14.4269 10.7593C14.5588 11.0779 14.6265 11.4194 14.6259 11.7642C14.6259 12.465 14.3517 13.1236 13.8572 13.6205Z" fill="#002244"/>
</svg>
