<svg xmlns="http://www.w3.org/2000/svg" width="50" height="50" viewBox="0 0 50 50"><defs><style>.a{fill:none;}.b{fill:#5e2750;}</style></defs><path class="a" d="M0,0H50V50H0Z"/><path class="b" d="M14.8,38.8a4.6,4.6,0,1,0,4.6,4.6A4.594,4.594,0,0,0,14.8,38.8ZM1,2V6.6H5.6l8.28,17.457-3.1,5.635A4.447,4.447,0,0,0,10.2,31.9a4.614,4.614,0,0,0,4.6,4.6H42.4V31.9H15.766a.569.569,0,0,1-.575-.575l.069-.276L17.33,27.3H34.465a4.578,4.578,0,0,0,4.025-2.369L46.724,10A2.247,2.247,0,0,0,47,8.9a2.307,2.307,0,0,0-2.3-2.3H10.683L8.521,2H1ZM37.8,38.8a4.6,4.6,0,1,0,4.6,4.6A4.594,4.594,0,0,0,37.8,38.8Z"/></svg>