<svg width="24" height="24" viewBox="0 0 24 24" fill="none" xmlns="http://www.w3.org/2000/svg">
<path d="M15.8531 12.3974L6.87188 19.4525C6.53789 19.715 6.04688 19.4783 6.04688 19.0553V4.94473C6.04688 4.52168 6.53789 4.2852 6.87188 4.5477L15.8531 11.6029C15.9134 11.6501 15.9621 11.7104 15.9957 11.7792C16.0292 11.848 16.0466 11.9236 16.0466 12.0001C16.0466 12.0767 16.0292 12.1522 15.9957 12.2211C15.9621 12.2899 15.9134 12.3502 15.8531 12.3974ZM16.2656 20.2501H17.7656C17.8154 20.2501 17.863 20.2304 17.8982 20.1952C17.9334 20.16 17.9531 20.1124 17.9531 20.0626V3.93762C17.9531 3.88789 17.9334 3.8402 17.8982 3.80504C17.863 3.76988 17.8154 3.75012 17.7656 3.75012H16.2656C16.2159 3.75012 16.1682 3.76988 16.133 3.80504C16.0979 3.8402 16.0781 3.88789 16.0781 3.93762V20.0626C16.0781 20.1124 16.0979 20.16 16.133 20.1952C16.1682 20.2304 16.2159 20.2501 16.2656 20.2501Z" fill="#002244"/>
</svg>
