<svg width="24" height="24" viewBox="0 0 24 24" fill="none" xmlns="http://www.w3.org/2000/svg">
<path d="M8.14688 12.3974L17.1281 19.4525C17.4621 19.715 17.9531 19.4783 17.9531 19.0553V4.94473C17.9531 4.52168 17.4621 4.2852 17.1281 4.5477L8.14688 11.6029C8.08661 11.6501 8.03787 11.7104 8.00435 11.7792C7.97083 11.848 7.95341 11.9236 7.95341 12.0001C7.95341 12.0767 7.97083 12.1522 8.00435 12.2211C8.03787 12.2899 8.08661 12.3502 8.14688 12.3974ZM7.73438 20.2501H6.23438C6.18465 20.2501 6.13696 20.2304 6.10179 20.1952C6.06663 20.16 6.04688 20.1124 6.04688 20.0626V3.93762C6.04688 3.88789 6.06663 3.8402 6.10179 3.80504C6.13696 3.76988 6.18465 3.75012 6.23438 3.75012H7.73438C7.7841 3.75012 7.83179 3.76988 7.86696 3.80504C7.90212 3.8402 7.92188 3.88789 7.92188 3.93762V20.0626C7.92188 20.1124 7.90212 20.16 7.86696 20.1952C7.83179 20.2304 7.7841 20.2501 7.73438 20.2501Z" fill="#002244"/>
</svg>
